<svg xmlns:dc="http://purl.org/dc/elements/1.1/" xmlns:cc="http://creativecommons.org/ns#" xmlns:rdf="http://www.w3.org/1999/02/22-rdf-syntax-ns#" xmlns:svg="http://www.w3.org/2000/svg" xmlns="http://www.w3.org/2000/svg" xmlns:sodipodi="http://sodipodi.sourceforge.net/DTD/sodipodi-0.dtd" xmlns:inkscape="http://www.inkscape.org/namespaces/inkscape" version="1.1" id="svg2520" sodipodi:docname="bowl.svg" inkscape:version="1.0.2-2 (e86c870879, 2021-01-15)" viewBox="51.6 122.66 73.69 73.69">
  <sodipodi:namedview pagecolor="#ffffff" bordercolor="#666666" borderopacity="1" objecttolerance="10" gridtolerance="10" guidetolerance="10" inkscape:pageopacity="0" inkscape:pageshadow="2" inkscape:window-width="1920" inkscape:window-height="1017" id="namedview12" showgrid="false" showborder="false" inkscape:pagecheckerboard="true" showguides="true" inkscape:guide-bbox="true" inkscape:zoom="1" inkscape:cx="57.346532" inkscape:cy="-97.440146" inkscape:window-x="-8" inkscape:window-y="-8" inkscape:window-maximized="1" inkscape:current-layer="layer1"/>
  <defs id="defs2514"/>
  <metadata id="metadata2517">
    <rdf:RDF>
      <cc:Work rdf:about="">
        <dc:format>image/svg+xml</dc:format>
        <dc:type rdf:resource="http://purl.org/dc/dcmitype/StillImage"/>
        <dc:title/>
      </cc:Work>
    </rdf:RDF>
  </metadata>
  <g id="layer1">
    <circle style="fill:#afe9c6;fill-opacity:1;stroke:none;stroke-width:3;stroke-linecap:round;stroke-linejoin:round;stroke-miterlimit:4;stroke-dasharray:none;stroke-opacity:1" id="circle5452" cx="88.446426" cy="159.50595" r="36.843227" inkscape:export-xdpi="521.12701" inkscape:export-ydpi="521.12701"/>
    <path id="path5460" style="fill:#ffffff;stroke:#000000;stroke-width:3;stroke-linecap:round;stroke-linejoin:round;stroke-miterlimit:4;stroke-dasharray:none;stroke-opacity:1;fill-opacity:1" d="m 73.9328,139.31325 c -4.21847,-0.028 -3.708,3.7016 -3.708,3.7016 -10.568,4.463 -10.568,31.6719 3.708,36.6837 2.46057,0.8853 26.56826,1.0279 29.51887,0 13.70918,-5.1199 13.57909,-32.2207 3.60061,-36.6837 0,0 0.41501,-3.6847 -3.60061,-3.7016 z m 27.93137,4.76 H 75.52032 Z" sodipodi:nodetypes="cccccccccc" inkscape:export-xdpi="521.12701" inkscape:export-ydpi="521.12701"/>
    <path id="path5456" style="fill:#b3b3b3;stroke:none;stroke-width:0.264586px;stroke-linecap:butt;stroke-linejoin:miter;stroke-opacity:1" d="m 75.101285,152.44415 c 0.03564,-0.003 0.07032,0.004 0.107062,0.0106 v 0 c 3.555922,0.81943 6.450948,3.42975 9.311823,5.74464 3.000473,2.59856 5.761827,5.51558 8.44016,8.5109 -6.236271,-0.30656 -12.472954,-0.61132 -18.709331,-0.91525 1.371474,-0.86187 2.549209,-2.40335 2.332557,-4.25332 -0.01339,-0.69638 -0.12907,-1.36097 -0.300732,-2.00762 l 2.132695,-2.03828 -2.831896,1e-5 c -0.510058,-1.28856 -1.071107,-2.5611 -1.305734,-3.93608 -0.07288,-0.58364 0.297995,-1.12324 0.823632,-1.11286 z" sodipodi:nodetypes="csscccccccccc" inkscape:export-xdpi="521.12701" inkscape:export-ydpi="521.12701"/>
    <path id="path5458" style="fill:#aaeeff;fill-opacity:1;stroke:#000000;stroke-width:3;stroke-linecap:round;stroke-linejoin:round;stroke-miterlimit:4;stroke-dasharray:none;stroke-opacity:1" d="m 63.36206,161.63585 c -1.135872,0.74134 0.836954,14.80894 10.604402,18.0626 2.422599,0.87953 26.947598,1.00494 29.518608,0 6.74102,-2.50719 9.5342,-10.595 9.69809,-13.0148 -21.817544,-17.44162 -31.469888,10.28885 -49.8211,-5.0478 z" sodipodi:nodetypes="ccccc" inkscape:export-xdpi="521.12701" inkscape:export-ydpi="521.12701"/>
  </g>
</svg>