<?xml version="1.0" encoding="UTF-8" standalone="no"?>
<svg
   xmlns:dc="http://purl.org/dc/elements/1.1/"
   xmlns:cc="http://creativecommons.org/ns#"
   xmlns:rdf="http://www.w3.org/1999/02/22-rdf-syntax-ns#"
   xmlns:svg="http://www.w3.org/2000/svg"
   xmlns="http://www.w3.org/2000/svg"
   width="210mm"
   height="297mm"
   viewBox="0 0 210 297"
   version="1.1"
   id="svg44">
  <metadata
     id="metadata50">
    <rdf:RDF>
      <cc:Work
         rdf:about="">
        <dc:format>image/svg+xml</dc:format>
        <dc:type
           rdf:resource="http://purl.org/dc/dcmitype/StillImage" />
        <dc:title></dc:title>
      </cc:Work>
    </rdf:RDF>
  </metadata>
  <defs
     id="defs48" />
  <circle
     cx="101.298"
     cy="168.575"
     r="43.93"
     style="opacity:.23;fill:#000;fill-opacity:1;stroke:none;stroke-width:4.10911;stroke-linecap:round;stroke-linejoin:round;stroke-miterlimit:4;stroke-dasharray:none;stroke-dashoffset:0;stroke-opacity:1;paint-order:stroke markers fill"
     id="circle2" />
  <circle
     cx="101.298"
     cy="168.575"
     r="43.93"
     style="opacity:.23;fill:#000;fill-opacity:1;stroke:none;stroke-width:4.10911;stroke-linecap:round;stroke-linejoin:round;stroke-miterlimit:4;stroke-dasharray:none;stroke-dashoffset:0;stroke-opacity:1;paint-order:stroke markers fill"
     id="circle4" />
  <circle
     cx="101.215"
     cy="168.964"
     r="41.971"
     style="fill:#e9afaf;fill-opacity:1;stroke:none;stroke-width:3.9259;stroke-linecap:round;stroke-linejoin:round;stroke-miterlimit:4;stroke-dasharray:none;stroke-dashoffset:0;stroke-opacity:1;paint-order:stroke markers fill"
     id="circle6" />
  <path
     d="M72.99 137.963a41.971 41.971 0 0 0-13.747 31 41.971 41.971 0 0 0 3.415 16.465h10.16a.172.172 0 0 0 .171-.173z"
     style="fill:#fdfc01;fill-opacity:1;stroke:none;stroke-width:3.0305;stroke-linecap:round;stroke-linejoin:round;stroke-miterlimit:4;stroke-dasharray:none;stroke-dashoffset:18.7602;stroke-opacity:1;paint-order:stroke markers fill"
     id="path8" />
  <path
     d="M91.998 128.07a41.971 41.971 0 0 0-19.009 9.893v47.292c0 .096.077.173.172.173h18.665a.171.171 0 0 0 .172-.173z"
     style="fill:#01ffff;fill-opacity:1;stroke:none;stroke-width:3.0305;stroke-linecap:round;stroke-linejoin:round;stroke-miterlimit:4;stroke-dasharray:none;stroke-dashoffset:18.7602;stroke-opacity:1;paint-order:stroke markers fill"
     id="path10" />
  <path
     d="M101.215 126.992a41.971 41.971 0 0 0-9.217 1.079v57.184c0 .096.076.173.172.173h18.664a.172.172 0 0 0 .172-.173V128.2a41.971 41.971 0 0 0-9.791-1.208z"
     style="fill:#00ff01;fill-opacity:1;stroke:none;stroke-width:3.0305;stroke-linecap:round;stroke-linejoin:round;stroke-miterlimit:4;stroke-dasharray:none;stroke-dashoffset:18.7602;stroke-opacity:1;paint-order:stroke markers fill"
     id="path12" />
  <path
     d="M111.006 128.2v57.055c0 .096.076.173.172.173h18.664a.172.172 0 0 0 .172-.173v-46.753a41.971 41.971 0 0 0-19.008-10.302z"
     style="fill:#fe00fe;fill-opacity:1;stroke:none;stroke-width:3.0305;stroke-linecap:round;stroke-linejoin:round;stroke-miterlimit:4;stroke-dasharray:none;stroke-dashoffset:18.7602;stroke-opacity:1;paint-order:stroke markers fill"
     id="path14" />
  <path
     d="M130.014 138.502v46.753c0 .096.077.173.172.173h9.63a41.971 41.971 0 0 0 3.37-16.465 41.971 41.971 0 0 0-13.172-30.46z"
     style="fill:#fe0000;fill-opacity:1;stroke:none;stroke-width:3.0305;stroke-linecap:round;stroke-linejoin:round;stroke-miterlimit:4;stroke-dasharray:none;stroke-dashoffset:18.7602;stroke-opacity:1;paint-order:stroke markers fill"
     id="path16" />
  <path
     d="M62.658 185.428a41.971 41.971 0 0 0 10.331 14.532v-13.85a.68.68 0 0 0-.682-.682z"
     style="fill:#fff;fill-opacity:1;stroke:none;stroke-width:5.90967;stroke-linecap:round;stroke-linejoin:round;stroke-miterlimit:4;stroke-dasharray:none;stroke-dashoffset:18.7602;stroke-opacity:1;paint-order:stroke markers fill"
     id="path18" />
  <path
     d="M73.672 185.428a.68.68 0 0 0-.683.682v13.85a41.971 41.971 0 0 0 19.009 9.914V186.11a.68.68 0 0 0-.683-.682z"
     style="fill:#fe00fe;fill-opacity:1;stroke:none;stroke-width:5.90967;stroke-linecap:round;stroke-linejoin:round;stroke-miterlimit:4;stroke-dasharray:none;stroke-dashoffset:18.7602;stroke-opacity:1;paint-order:stroke markers fill"
     id="path20" />
  <rect
     width="1.614"
     height="6.172"
     x="-111.353"
     y="150.066"
     ry=".742"
     style="fill:#fff;fill-opacity:1;stroke:#000;stroke-width:.778;stroke-linecap:round;stroke-linejoin:round;stroke-miterlimit:4;stroke-dasharray:none;stroke-dashoffset:18.7602;stroke-opacity:1;paint-order:stroke markers fill"
     transform="rotate(-56.599) skewX(-.031)"
     id="rect22" />
  <path
     d="M68.186 164.473zm.259.022c.014.004.027.013.04.02-.013-.007-.026-.015-.04-.02zm.12.06c.014.009.028.02.043.032-.015-.01-.029-.023-.044-.032zm.115.09.037.038-.037-.038zm.1.112zm.089.134c.012.02.024.041.035.064-.011-.023-.023-.043-.035-.064zm.084.178.017.043-.017-.043zm.431 10.992-.44 1.281c5.792 3.41 3.73 5.317 4.045 8.086l1.069.005c2.269-6.836-2.875-7.907-4.674-9.372zm4.001 11.036zm-.015.592zM71.732 189.385c-3.025 2.984-2.84 5.352-1.988 7.229a41.97 41.97 0 0 0 3.245 3.345c-4.121-6.665-1.676-7.083-.308-10.084z"
     style="fill:#000;fill-opacity:1;stroke:none;stroke-width:3.00917;stroke-linecap:round;stroke-linejoin:round;stroke-miterlimit:4;stroke-dasharray:none;stroke-dashoffset:18.7602;stroke-opacity:1;paint-order:stroke markers fill"
     id="path24" />
  <path
     d="M79.395 204.317a41.971 41.971 0 0 0 1.78 1.092 41.971 41.971 0 0 0 3.778 1.824 41.971 41.971 0 0 0 2.7.985c.92-3.094 1.09-7.986 1.81-10.052-23.856-24.28-19.737-9.993-10.589 5.311.187.32.342.544.521.84z"
     style="fill:#dee3db;fill-opacity:1;stroke:#000;stroke-width:3.83738;stroke-linecap:round;stroke-linejoin:round;stroke-miterlimit:4;stroke-dasharray:none;stroke-dashoffset:0;stroke-opacity:1;paint-order:stroke markers fill"
     id="path26" />
  <path
     d="M89.306 149.235c-5.36-.095-8.339 2.395-9.41 13.25-.266 10.299 2.388 18.206 3.228 26.778 1.082 6.357 2.346 13.682 3.603 18.617a41.971 41.971 0 0 0 14.57 2.667 41.971 41.971 0 0 0 38.431-25.156c-10.47-19.414-24.171-30.247-43.008-35.205-2.855-.481-5.317-.914-7.414-.951z"
     style="fill:#dee3db;fill-opacity:1;stroke:#000;stroke-width:3.9259;stroke-linecap:round;stroke-linejoin:round;stroke-miterlimit:4;stroke-dasharray:none;stroke-dashoffset:0;stroke-opacity:1;paint-order:stroke markers fill"
     id="path28" />
  <circle
     cx="110.563"
     cy="171.601"
     r="1.824"
     style="fill:#000;fill-opacity:1;stroke:none;stroke-width:.719749;stroke-linecap:round;stroke-linejoin:round;stroke-miterlimit:4;stroke-dasharray:none;stroke-dashoffset:0;stroke-opacity:1;paint-order:stroke markers fill"
     id="circle30" />
  <path
     d="M119.88 166.921c-.405.85-2.516-4.262-4.622-2.94-.533-.774-.68-1.517.258-1.592.937-.074 4.767 3.683 4.363 4.532zM118.063 199.77c-1.754.41.93-3.133 1.402-4.698.614-2.027.631-7.39 1.863-6.075 1.231 1.314-1.511 10.364-3.265 10.774zM120.15 200.401c-1.433.289.903-2.761 1.362-4.14.593-1.786.87-6.58 1.798-5.35.928 1.23-1.726 9.202-3.16 9.49zM122.589 201.25c-1.186.255.752-2.418 1.134-3.624.495-1.562.736-5.754 1.5-4.682.764 1.073-1.45 8.049-2.634 8.305z"
     style="fill:#000;fill-opacity:1;stroke:none;stroke-width:1.4395;stroke-linecap:round;stroke-linejoin:round;stroke-miterlimit:4;stroke-dasharray:none;stroke-dashoffset:0;stroke-opacity:1;paint-order:stroke markers fill"
     id="path32" />
  <path
     d="M87.925 173.38c-5.266-.053-8.534 5.437-4.744 18.324-2.191-22.97 13.064-13.175 20.832.89.753.961 2.287.033 1.99-.854-3.812-11.319-12.193-18.302-18.078-18.36z"
     style="fill:#000;fill-opacity:1;stroke:none;stroke-width:6.73277;stroke-linecap:round;stroke-linejoin:round;stroke-miterlimit:4;stroke-dasharray:none;stroke-dashoffset:0;stroke-opacity:1;paint-order:stroke markers fill"
     id="path34" />
  <path
     d="M82.893 177.663c.46.513.512.572.819.572.515 0 1.355-.915 2.15-2.097.482.549.927.904 1.247.904.462 0 1.187-.741 1.906-1.746.733 1.037 1.479 1.807 1.95 1.807.317 0 .759-.351 1.236-.892.85 1.32 1.787 2.392 2.344 2.392.207 0 .47-.16.757-.412.907 1.489 1.97 2.768 2.58 2.768.2 0 .383-.335.661-.576-3.9-4.543-12.105-9.756-15.65-2.72z"
     style="fill:#fff;fill-opacity:1;stroke:none;stroke-width:3.9259;stroke-linecap:round;stroke-linejoin:round;stroke-miterlimit:4;stroke-dasharray:none;stroke-dashoffset:0;stroke-opacity:1;paint-order:stroke markers fill"
     id="path36" />
  <circle
     cx="110.75"
     cy="171.721"
     r="4.162"
     style="fill:none;fill-opacity:1;stroke:#000;stroke-width:.78518;stroke-linecap:round;stroke-linejoin:round;stroke-miterlimit:4;stroke-dasharray:6.28144,6.28144;stroke-dashoffset:3.96;stroke-opacity:1;paint-order:stroke markers fill"
     id="circle38" />
  <rect
     width="1.614"
     height="6.172"
     x="-108.473"
     y="150.271"
     ry=".742"
     style="fill:#fff;fill-opacity:1;stroke:#000;stroke-width:.778;stroke-linecap:round;stroke-linejoin:round;stroke-miterlimit:4;stroke-dasharray:none;stroke-dashoffset:18.7602;stroke-opacity:1;paint-order:stroke markers fill"
     transform="rotate(-56.599) skewX(-.031)"
     id="rect40" />
  <path
     d="M66.108 177.865c.743-2.546 1.31-3.257 3.35-4.803 6.75 2.216.089 10.155-3.35 4.803z"
     style="fill:#000;fill-opacity:1;stroke:#000;stroke-width:1.071;stroke-linecap:round;stroke-linejoin:round;stroke-miterlimit:4;stroke-dasharray:none;stroke-dashoffset:18.7602;stroke-opacity:1;paint-order:stroke markers fill"
     id="path42" />
</svg>
