<svg xmlns:dc="http://purl.org/dc/elements/1.1/" xmlns:cc="http://creativecommons.org/ns#" xmlns:rdf="http://www.w3.org/1999/02/22-rdf-syntax-ns#" xmlns:svg="http://www.w3.org/2000/svg" xmlns="http://www.w3.org/2000/svg" xmlns:sodipodi="http://sodipodi.sourceforge.net/DTD/sodipodi-0.dtd" xmlns:inkscape="http://www.inkscape.org/namespaces/inkscape" version="1.1" id="svg4663" inkscape:version="1.0.2-2 (e86c870879, 2021-01-15)" sodipodi:docname="clarkThumbsUp.svg" viewBox="65.48 54.9 91.29 91.29">
  <defs id="defs4657"/>
  <sodipodi:namedview id="base" pagecolor="#ffffff" bordercolor="#666666" borderopacity="1.0" inkscape:pageopacity="0.0" inkscape:pageshadow="2" inkscape:zoom="0.35" inkscape:cx="400" inkscape:cy="560" inkscape:document-units="mm" inkscape:current-layer="layer1" inkscape:document-rotation="0" showgrid="false" inkscape:window-width="1267" inkscape:window-height="1009" inkscape:window-x="2102" inkscape:window-y="0" inkscape:window-maximized="0"/>
  <metadata id="metadata4660">
    <rdf:RDF>
      <cc:Work rdf:about="">
        <dc:format>image/svg+xml</dc:format>
        <dc:type rdf:resource="http://purl.org/dc/dcmitype/StillImage"/>
        <dc:title/>
      </cc:Work>
    </rdf:RDF>
  </metadata>
  <g inkscape:label="Layer 1" inkscape:groupmode="layer" id="layer1">
    <circle style="fill:#ffffff;fill-opacity:1;stroke:none;stroke-width:4.26941;stroke-linecap:round;stroke-linejoin:round;stroke-miterlimit:4;stroke-dasharray:none;stroke-dashoffset:0;stroke-opacity:1;paint-order:stroke markers fill" id="circle2235" cx="111.125" cy="100.54167" inkscape:export-xdpi="96" inkscape:export-ydpi="96" inkscape:export-filename="C:\Users\aleja\Google Drive\Misc_\Doodles\Clark\noText\clarkThumbsUp.png" r="45.643829"/>
    <circle inkscape:export-ydpi="96" inkscape:export-xdpi="96" cy="100.54167" cx="111.125" id="circle2237" style="fill:#000000;fill-opacity:1;stroke:none;stroke-width:4.10911;stroke-linecap:round;stroke-linejoin:round;stroke-miterlimit:4;stroke-dasharray:none;stroke-dashoffset:0;stroke-opacity:1;paint-order:stroke markers fill" inkscape:export-filename="C:\Users\aleja\Google Drive\Misc_\Doodles\Clark\noText\clarkThumbsUp.png" r="43.930016"/>
    <circle style="fill:#e9afaf;fill-opacity:1;stroke:none;stroke-width:3.9259;stroke-linecap:round;stroke-linejoin:round;stroke-miterlimit:4;stroke-dasharray:none;stroke-dashoffset:0;stroke-opacity:1;paint-order:stroke markers fill" id="circle2239" cx="111.125" cy="100.54167" inkscape:export-xdpi="96" inkscape:export-ydpi="96" inkscape:export-filename="C:\Users\aleja\Google Drive\Misc_\Doodles\Clark\noText\clarkThumbsUp.png" r="41.971375"/>
    <path inkscape:export-filename="C:\Users\aleja\Google Drive\Misc_\Doodles\Clark\noText\clarkThumbsUp.png" inkscape:export-ydpi="96" inkscape:export-xdpi="96" id="path2243" d="m 99.133235,81.20137 c -5.35991,-0.0945 -8.33869,2.39481 -9.41076,13.25054 -0.26554,10.29846 2.38932,18.20557 3.22843,26.77769 1.0821,6.35736 2.34635,13.68179 3.60309,18.6173 a 41.971373,41.971373 0 0 0 14.571285,2.66648 41.971373,41.971373 0 0 0 38.43022,-25.15601 C 139.08555,97.94362 125.38416,87.11113 106.5477,82.15286 c -2.85503,-0.48172 -5.31711,-0.91451 -7.414465,-0.95149 z" style="fill:#dee3db;fill-opacity:1;stroke:#000000;stroke-width:3.926;stroke-linecap:round;stroke-linejoin:round;stroke-miterlimit:4;stroke-dasharray:none;stroke-dashoffset:0;stroke-opacity:1;paint-order:stroke markers fill" inkscape:connector-curvature="0"/>
    <circle inkscape:export-filename="C:\Users\aleja\Google Drive\Misc_\Doodles\Clark\noText\clarkThumbsUp.png" inkscape:export-ydpi="96" inkscape:export-xdpi="96" cy="103.03825" cx="120.3902" id="circle2246" style="fill:#000000;fill-opacity:1;stroke:none;stroke-width:0.719749;stroke-linecap:round;stroke-linejoin:round;stroke-miterlimit:4;stroke-dasharray:none;stroke-dashoffset:0;stroke-opacity:1;paint-order:stroke markers fill" r="1.8235295"/>
    <path inkscape:export-filename="C:\Users\aleja\Google Drive\Misc_\Doodles\Clark\noText\clarkThumbsUp.png" inkscape:export-ydpi="96" inkscape:export-xdpi="96" sodipodi:nodetypes="cacc" inkscape:connector-curvature="0" id="path2248" d="m 127.88998,131.20809 c -1.75405,0.40942 0.92954,-3.1341 1.40287,-4.69858 0.61334,-2.02727 0.63054,-7.38939 1.86217,-6.07509 1.23165,1.31432 -1.51099,10.36419 -3.26504,10.77367 z" inkscape:transform-center-y="-4.8025779" inkscape:transform-center-x="6.1554845" style="fill:#000000;fill-opacity:1;stroke:none;stroke-width:1.4395;stroke-linecap:round;stroke-linejoin:round;stroke-miterlimit:4;stroke-dasharray:none;stroke-dashoffset:0;stroke-opacity:1;paint-order:stroke markers fill"/>
    <path inkscape:export-filename="C:\Users\aleja\Google Drive\Misc_\Doodles\Clark\noText\clarkThumbsUp.png" inkscape:export-ydpi="96" inkscape:export-xdpi="96" style="fill:#000000;fill-opacity:1;stroke:none;stroke-width:1.4395;stroke-linecap:round;stroke-linejoin:round;stroke-miterlimit:4;stroke-dasharray:none;stroke-dashoffset:0;stroke-opacity:1;paint-order:stroke markers fill" inkscape:transform-center-x="4.7489054" inkscape:transform-center-y="-4.5743077" d="m 129.97801,131.83884 c -1.43343,0.28854 0.90285,-2.76181 1.36106,-4.14003 0.59375,-1.78593 0.87092,-6.58068 1.79875,-5.35077 0.92785,1.22993 -1.72641,9.20219 -3.15981,9.4908 z" id="path2250" inkscape:connector-curvature="0" sodipodi:nodetypes="cacc"/>
    <path inkscape:export-filename="C:\Users\aleja\Google Drive\Misc_\Doodles\Clark\noText\clarkThumbsUp.png" inkscape:export-ydpi="96" inkscape:export-xdpi="96" sodipodi:nodetypes="cacc" inkscape:connector-curvature="0" id="path2252" d="m 132.416,132.68655 c -1.18525,0.25624 0.75283,-2.41672 1.13483,-3.62276 0.495,-1.56278 0.73577,-5.75478 1.4995,-4.68229 0.76369,1.07249 -1.44912,8.04873 -2.63433,8.30505 z" inkscape:transform-center-y="-3.9849043" inkscape:transform-center-x="3.9141402" style="fill:#000000;fill-opacity:1;stroke:none;stroke-width:1.4395;stroke-linecap:round;stroke-linejoin:round;stroke-miterlimit:4;stroke-dasharray:none;stroke-dashoffset:0;stroke-opacity:1;paint-order:stroke markers fill"/>
    <path inkscape:export-filename="C:\Users\aleja\Google Drive\Misc_\Doodles\Clark\noText\clarkThumbsUp.png" inkscape:export-ydpi="96" inkscape:export-xdpi="96" style="fill:#000000;fill-opacity:1;stroke:none;stroke-width:6.73277;stroke-linecap:round;stroke-linejoin:round;stroke-miterlimit:4;stroke-dasharray:none;stroke-dashoffset:0;stroke-opacity:1;paint-order:stroke markers fill" d="m 97.752155,104.81677 c -5.25649,-0.31368 -8.53343,5.43754 -4.74382,18.32463 -3.92447,-26.44775 10.713445,-18.88491 20.832345,0.88984 0.75252,0.96123 2.28713,0.0334 1.99005,-0.85417 -4.12373,-8.82535 -12.22921,-18.01124 -18.078575,-18.3603 z" id="path2254" inkscape:connector-curvature="0" sodipodi:nodetypes="scccs"/>
    <path inkscape:export-filename="C:\Users\aleja\Google Drive\Misc_\Doodles\Clark\noText\clarkThumbsUp.png" inkscape:export-ydpi="96" inkscape:export-xdpi="96" sodipodi:nodetypes="cccccc" inkscape:connector-curvature="0" id="path2256" d="m 95.403345,107.61296 c 1.24125,1.64071 2.33799,-0.35528 2.92016,-0.60939 0.78339,1.12242 1.45563,1.41564 2.376745,0.95632 0.6602,0.37984 1.27218,1.18617 2.06588,0.22492 -1.01794,-0.8121 -7.100765,-5.30911 -9.772585,1.02622 0.94034,0.45672 1.93619,-0.90248 2.4098,-1.59807 z" style="fill:#ffffff;fill-opacity:1;stroke:#000000;stroke-width:2;stroke-linecap:round;stroke-linejoin:round;stroke-miterlimit:4;stroke-dasharray:none;stroke-dashoffset:0;stroke-opacity:1;paint-order:stroke markers fill"/>
    <path style="fill:#000000;fill-opacity:1;stroke:none;stroke-width:1.4395;stroke-linecap:round;stroke-linejoin:round;stroke-miterlimit:4;stroke-dasharray:none;stroke-dashoffset:0;stroke-opacity:1;paint-order:stroke markers fill" inkscape:transform-center-x="-0.11169274" inkscape:transform-center-y="-0.52132892" d="m 126.6688,99.78861 c -0.40428,0.84899 -2.51487,-4.26174 -4.62081,-2.93923 -0.53311,-0.77462 -0.68004,-1.51825 0.25735,-1.59264 0.93739,-0.0743 4.76775,3.68288 4.36346,4.53187 z" id="path2258" inkscape:connector-curvature="0" sodipodi:nodetypes="cccc" inkscape:export-xdpi="96" inkscape:export-ydpi="96" inkscape:export-filename="C:\Users\aleja\Google Drive\Misc_\Doodles\Clark\noText\clarkThumbsUp.png"/>
    <path id="path2260" style="fill:#dee3db;fill-opacity:1;stroke:#000000;stroke-width:3.29001;stroke-linecap:round;stroke-linejoin:round;stroke-miterlimit:4;stroke-dasharray:none;stroke-dashoffset:0;stroke-opacity:1;paint-order:stroke markers fill" d="m 121.61256,124.74236 c -1.26986,0.0146 -1.132,1.03604 -1.22938,2.79504 -4.51063,-1.14501 -4.25192,7.86746 -0.13047,6.94874 2.67965,1.49899 4.26746,4.10427 6.08439,5.17281 3.37442,-1.31212 6.56488,-3.05535 9.49192,-5.18625 -2.49111,-1.32139 -5.81311,-2.74585 -10.18387,-4.2938 0,0 -2.21019,-0.9759 -2.75205,-2.63911 0.0147,-1.80375 -0.0827,-2.81121 -1.28054,-2.79743 z" sodipodi:nodetypes="sccccccs" inkscape:export-filename="C:\Users\aleja\Google Drive\Misc_\Doodles\Clark\noText\clarkThumbsUp.png" inkscape:export-xdpi="96" inkscape:export-ydpi="96"/>
  </g>
</svg>