<?xml version="1.0" encoding="UTF-8" standalone="no"?>
<svg
   xmlns:dc="http://purl.org/dc/elements/1.1/"
   xmlns:cc="http://creativecommons.org/ns#"
   xmlns:rdf="http://www.w3.org/1999/02/22-rdf-syntax-ns#"
   xmlns:svg="http://www.w3.org/2000/svg"
   xmlns="http://www.w3.org/2000/svg"
   xmlns:sodipodi="http://sodipodi.sourceforge.net/DTD/sodipodi-0.dtd"
   xmlns:inkscape="http://www.inkscape.org/namespaces/inkscape"
   width="210mm"
   height="297mm"
   viewBox="0 0 210 297"
   version="1.1"
   id="svg4760"
   inkscape:version="1.0.2-2 (e86c870879, 2021-01-15)"
   sodipodi:docname="clarkBlackout.svg">
  <defs
     id="defs4754" />
  <sodipodi:namedview
     id="base"
     pagecolor="#ffffff"
     bordercolor="#666666"
     borderopacity="1.0"
     inkscape:pageopacity="0.0"
     inkscape:pageshadow="2"
     inkscape:zoom="0.35"
     inkscape:cx="400"
     inkscape:cy="560"
     inkscape:document-units="mm"
     inkscape:current-layer="layer1"
     inkscape:document-rotation="0"
     showgrid="false"
     inkscape:window-width="1267"
     inkscape:window-height="1009"
     inkscape:window-x="2050"
     inkscape:window-y="0"
     inkscape:window-maximized="0" />
  <metadata
     id="metadata4757">
    <rdf:RDF>
      <cc:Work
         rdf:about="">
        <dc:format>image/svg+xml</dc:format>
        <dc:type
           rdf:resource="http://purl.org/dc/dcmitype/StillImage" />
        <dc:title></dc:title>
      </cc:Work>
    </rdf:RDF>
  </metadata>
  <g
     inkscape:label="Layer 1"
     inkscape:groupmode="layer"
     id="layer1">
    <circle
       inkscape:export-filename="C:\Users\Eggstream\Google Drive\Misc_\Doodles\Clark\noText\clarkyTrouble.png"
       style="opacity:0.23;fill:#000000;fill-opacity:1;stroke:none;stroke-width:4.10911;stroke-linecap:round;stroke-linejoin:round;stroke-miterlimit:4;stroke-dasharray:none;stroke-dashoffset:0;stroke-opacity:1;paint-order:stroke markers fill"
       id="circle5190"
       cx="101.29762"
       cy="168.57509"
       inkscape:export-xdpi="96"
       inkscape:export-ydpi="96"
       r="43.930016" />
    <circle
       r="43.930016"
       inkscape:export-ydpi="96"
       inkscape:export-xdpi="96"
       cy="168.57509"
       cx="101.29762"
       id="circle5132"
       style="opacity:0.23;fill:#000000;fill-opacity:1;stroke:none;stroke-width:4.10911;stroke-linecap:round;stroke-linejoin:round;stroke-miterlimit:4;stroke-dasharray:none;stroke-dashoffset:0;stroke-opacity:1;paint-order:stroke markers fill"
       inkscape:export-filename="C:\Users\Eggstream\Google Drive\Misc_\Doodles\Clark\noText\clarkyTrouble.png" />
    <circle
       r="41.971375"
       style="fill:#e9afaf;fill-opacity:1;stroke:none;stroke-width:3.9259;stroke-linecap:round;stroke-linejoin:round;stroke-miterlimit:4;stroke-dasharray:none;stroke-dashoffset:0;stroke-opacity:1;paint-order:stroke markers fill"
       id="circle5134"
       cx="101.21498"
       cy="168.9637"
       inkscape:export-xdpi="96"
       inkscape:export-ydpi="96"
       inkscape:export-filename="C:\Users\Eggstream\Google Drive\Misc_\Doodles\Clark\noText\clarkyTrouble.png" />
    <path
       style="fill:#fdfc01;fill-opacity:1;stroke:none;stroke-width:3.0305;stroke-linecap:round;stroke-linejoin:round;stroke-miterlimit:4;stroke-dasharray:none;stroke-dashoffset:18.7602;stroke-opacity:1;paint-order:stroke markers fill"
       d="m 72.98938,137.96278 a 41.971375,41.971375 0 0 0 -13.74593,31.0007 41.971375,41.971375 0 0 0 3.41426,16.46409 H 72.8173 c 0.0953,0 0.17208,-0.0768 0.17208,-0.17208 z"
       id="rect5248"
       inkscape:export-filename="C:\Users\Eggstream\Google Drive\Misc_\Doodles\Clark\noText\clarkyTrouble.png"
       inkscape:export-xdpi="96"
       inkscape:export-ydpi="96"
       inkscape:connector-curvature="0" />
    <path
       style="fill:#01ffff;fill-opacity:1;stroke:none;stroke-width:3.0305;stroke-linecap:round;stroke-linejoin:round;stroke-miterlimit:4;stroke-dasharray:none;stroke-dashoffset:18.7602;stroke-opacity:1;paint-order:stroke markers fill"
       d="m 91.99752,128.07088 a 41.971375,41.971375 0 0 0 -19.00814,9.8919 v 47.29271 c 0,0.0953 0.0768,0.17208 0.17208,0.17208 h 18.66449 c 0.0953,0 0.17157,-0.0768 0.17157,-0.17208 z"
       id="rect5258"
       inkscape:export-filename="C:\Users\Eggstream\Google Drive\Misc_\Doodles\Clark\noText\clarkyTrouble.png"
       inkscape:export-xdpi="96"
       inkscape:export-ydpi="96"
       inkscape:connector-curvature="0" />
    <path
       style="fill:#00ff01;fill-opacity:1;stroke:none;stroke-width:3.0305;stroke-linecap:round;stroke-linejoin:round;stroke-miterlimit:4;stroke-dasharray:none;stroke-dashoffset:18.7602;stroke-opacity:1;paint-order:stroke markers fill"
       d="m 101.21505,126.99239 a 41.971375,41.971375 0 0 0 -9.21753,1.07849 v 57.18461 c 0,0.0953 0.0768,0.17208 0.17208,0.17208 h 18.6645 c 0.0953,0 0.17208,-0.0768 0.17208,-0.17208 v -57.05541 a 41.971375,41.971375 0 0 0 -9.79113,-1.20769 z"
       id="rect5260"
       inkscape:export-filename="C:\Users\Eggstream\Google Drive\Misc_\Doodles\Clark\noText\clarkyTrouble.png"
       inkscape:export-xdpi="96"
       inkscape:export-ydpi="96"
       inkscape:connector-curvature="0" />
    <path
       style="fill:#fe00fe;fill-opacity:1;stroke:none;stroke-width:3.0305;stroke-linecap:round;stroke-linejoin:round;stroke-miterlimit:4;stroke-dasharray:none;stroke-dashoffset:18.7602;stroke-opacity:1;paint-order:stroke markers fill"
       d="m 111.00618,128.20008 v 57.05541 c 0,0.0953 0.0763,0.17208 0.17156,0.17208 h 18.6645 c 0.0953,0 0.17208,-0.0768 0.17208,-0.17208 v -46.75323 a 41.971375,41.971375 0 0 0 -19.00814,-10.30218 z"
       id="rect5262"
       inkscape:export-filename="C:\Users\Eggstream\Google Drive\Misc_\Doodles\Clark\noText\clarkyTrouble.png"
       inkscape:export-xdpi="96"
       inkscape:export-ydpi="96"
       inkscape:connector-curvature="0" />
    <path
       style="fill:#fe0000;fill-opacity:1;stroke:none;stroke-width:3.0305;stroke-linecap:round;stroke-linejoin:round;stroke-miterlimit:4;stroke-dasharray:none;stroke-dashoffset:18.7602;stroke-opacity:1;paint-order:stroke markers fill"
       d="m 130.01432,138.50226 v 46.75323 c 0,0.0953 0.0763,0.17208 0.17157,0.17208 h 9.62938 a 41.971375,41.971375 0 0 0 3.37086,-16.46409 41.971375,41.971375 0 0 0 -13.17181,-30.46122 z"
       id="rect5264"
       inkscape:export-filename="C:\Users\Eggstream\Google Drive\Misc_\Doodles\Clark\noText\clarkyTrouble.png"
       inkscape:export-xdpi="96"
       inkscape:export-ydpi="96"
       inkscape:connector-curvature="0" />
    <path
       style="fill:#ffffff;fill-opacity:1;stroke:none;stroke-width:5.90967;stroke-linecap:round;stroke-linejoin:round;stroke-miterlimit:4;stroke-dasharray:none;stroke-dashoffset:18.7602;stroke-opacity:1;paint-order:stroke markers fill"
       d="m 62.65771,185.42757 a 41.971375,41.971375 0 0 0 10.33167,14.53193 v -13.8498 c 0,-0.37796 -0.30417,-0.68213 -0.68213,-0.68213 z"
       id="rect5268"
       inkscape:export-filename="C:\Users\Eggstream\Google Drive\Misc_\Doodles\Clark\noText\clarkyTrouble.png"
       inkscape:export-xdpi="96"
       inkscape:export-ydpi="96"
       inkscape:connector-curvature="0" />
    <path
       style="fill:#fe00fe;fill-opacity:1;stroke:none;stroke-width:5.90967;stroke-linecap:round;stroke-linejoin:round;stroke-miterlimit:4;stroke-dasharray:none;stroke-dashoffset:18.7602;stroke-opacity:1;paint-order:stroke markers fill"
       d="m 73.67151,185.42757 c -0.37796,0 -0.68213,0.30417 -0.68213,0.68213 v 13.8498 a 41.971375,41.971375 0 0 0 19.00814,9.91465 V 186.1097 c 0,-0.37796 -0.30417,-0.68213 -0.68213,-0.68213 z"
       id="rect5270"
       inkscape:export-filename="C:\Users\Eggstream\Google Drive\Misc_\Doodles\Clark\noText\clarkyTrouble.png"
       inkscape:export-xdpi="96"
       inkscape:export-ydpi="96"
       inkscape:connector-curvature="0" />
    <rect
       style="fill:#ffffff;fill-opacity:1;stroke:#000000;stroke-width:0.778;stroke-linecap:round;stroke-linejoin:round;stroke-miterlimit:4;stroke-dasharray:none;stroke-dashoffset:18.7602;stroke-opacity:1;paint-order:stroke markers fill"
       id="rect5229"
       width="1.6137944"
       height="6.1718435"
       x="-111.35344"
       y="150.0657"
       ry="0.7421838"
       transform="matrix(0.55049388,-0.8348392,0.83453806,0.5509503,0,0)"
       inkscape:export-filename="C:\Users\Eggstream\Google Drive\Misc_\Doodles\Clark\noText\clarkyTrouble.png"
       inkscape:export-xdpi="96"
       inkscape:export-ydpi="96" />
    <path
       inkscape:connector-curvature="0"
       inkscape:export-ydpi="96"
       inkscape:export-xdpi="96"
       inkscape:export-filename="C:\Users\Eggstream\Google Drive\Misc_\Doodles\Clark\noText\clarkyTrouble.png"
       id="path5136"
       d="m 68.18644,164.47303 c -0.1337,0.0268 -0.24609,0.11077 -0.32829,0.23356 0.0822,-0.12258 0.19472,-0.20682 0.32829,-0.23356 z m 0.25826,0.0223 c 0.0138,0.004 0.027,0.0128 0.0406,0.0188 -0.0137,-0.006 -0.0267,-0.0139 -0.0406,-0.0188 z m 0.11944,0.0594 c 0.0149,0.009 0.029,0.0211 0.0435,0.0318 -0.0146,-0.0103 -0.0286,-0.0223 -0.0435,-0.0318 z m 0.11589,0.0906 c 0.0126,0.0118 0.0248,0.0248 0.0371,0.0377 -0.0123,-0.013 -0.0244,-0.0258 -0.0371,-0.0377 z m 0.10064,0.11123 c 0.0139,0.0178 0.0276,0.0361 0.0407,0.0553 -0.0131,-0.0192 -0.0266,-0.0373 -0.0407,-0.0553 z m 0.0882,0.13413 c 0.0121,0.0211 0.0242,0.0418 0.0353,0.0641 -0.0114,-0.0225 -0.0232,-0.0429 -0.0353,-0.0641 z m 0.0841,0.17826 c 0.006,0.0147 0.012,0.0284 0.0171,0.0435 -0.006,-0.0151 -0.0115,-0.0288 -0.0171,-0.0435 z m 0.43135,10.99195 -0.44037,1.28114 c 5.79247,3.40933 3.72933,5.31661 4.04548,8.08567 l 1.06817,0.005 c 2.26937,-6.83599 -2.87501,-7.90624 -4.67328,-9.37194 z m 4.00104,11.03585 c 0.0378,0.18851 0.0346,0.37051 5.9e-4,0.53067 0.0341,-0.16032 0.0372,-0.34196 -5.9e-4,-0.53067 z m -0.0153,0.59185 c -0.0261,0.0945 -0.0618,0.18102 -0.10998,0.25298 0.048,-0.0719 0.0839,-0.15866 0.10998,-0.25298 z"
       style="fill:#000000;fill-opacity:1;stroke:none;stroke-width:3.00917;stroke-linecap:round;stroke-linejoin:round;stroke-miterlimit:4;stroke-dasharray:none;stroke-dashoffset:18.7602;stroke-opacity:1;paint-order:stroke markers fill"
       sodipodi:nodetypes="cccccccccccccccccccccccccccccccc" />
    <path
       style="fill:#000000;fill-opacity:1;stroke:none;stroke-width:3.00917;stroke-linecap:round;stroke-linejoin:round;stroke-miterlimit:4;stroke-dasharray:none;stroke-dashoffset:18.7602;stroke-opacity:1;paint-order:stroke markers fill"
       d="m 71.73209,189.38548 c -3.02544,2.98328 -2.84014,5.35146 -1.98799,7.22849 1.01895,1.17443 2.10238,2.29132 3.24528,3.34553 -4.1218,-6.66515 -1.67607,-7.08372 -0.30799,-10.08412 z"
       id="path5184"
       inkscape:connector-curvature="0"
       sodipodi:nodetypes="ccccc"
       inkscape:export-filename="C:\Users\Eggstream\Google Drive\Misc_\Doodles\Clark\noText\clarkyTrouble.png"
       inkscape:export-xdpi="96"
       inkscape:export-ydpi="96" />
    <path
       inkscape:connector-curvature="0"
       style="fill:#dee3db;fill-opacity:1;stroke:#000000;stroke-width:3.83738;stroke-linecap:round;stroke-linejoin:round;stroke-miterlimit:4;stroke-dasharray:none;stroke-dashoffset:0;stroke-opacity:1;paint-order:stroke markers fill"
       d="m 79.39507,204.31713 a 41.971373,41.971373 0 0 0 1.78057,1.09148 41.971373,41.971373 0 0 0 3.77756,1.82454 41.971373,41.971373 0 0 0 2.70029,0.9853 c 0.91874,-3.09483 1.08878,-7.9861 1.80965,-10.05254 -23.85604,-24.27919 -19.73697,-9.99286 -10.58879,5.31132 0.18636,0.31959 0.34185,0.54381 0.52072,0.8399 z"
       id="path5138"
       inkscape:export-filename="C:\Users\Eggstream\Google Drive\Misc_\Doodles\Clark\noText\clarkyTrouble.png"
       inkscape:export-xdpi="96"
       inkscape:export-ydpi="96" />
    <path
       inkscape:connector-curvature="0"
       style="fill:#dee3db;fill-opacity:1;stroke:#000000;stroke-width:3.9259;stroke-linecap:round;stroke-linejoin:round;stroke-miterlimit:4;stroke-dasharray:none;stroke-dashoffset:0;stroke-opacity:1;paint-order:stroke markers fill"
       d="m 89.30585,149.23473 c -5.35992,-0.0945 -8.3387,2.39481 -9.41077,13.25055 -0.26553,10.29845 2.38933,18.20557 3.22844,26.77768 1.0821,6.35736 2.34634,13.6818 3.60309,18.61731 a 41.971373,41.971373 0 0 0 14.57128,2.66647 41.971373,41.971373 0 0 0 38.43024,-25.15601 c -10.46995,-19.41374 -24.17135,-30.24624 -43.00781,-35.20451 -2.85504,-0.48172 -5.31711,-0.91451 -7.41447,-0.95149 z"
       id="path5142"
       inkscape:export-xdpi="96"
       inkscape:export-ydpi="96"
       inkscape:export-filename="C:\Users\Eggstream\Google Drive\Misc_\Doodles\Clark\noText\clarkyTrouble.png" />
    <circle
       r="1.8235295"
       style="fill:#000000;fill-opacity:1;stroke:none;stroke-width:0.719749;stroke-linecap:round;stroke-linejoin:round;stroke-miterlimit:4;stroke-dasharray:none;stroke-dashoffset:0;stroke-opacity:1;paint-order:stroke markers fill"
       id="circle5144"
       cx="110.56276"
       cy="171.60077"
       inkscape:export-xdpi="96"
       inkscape:export-ydpi="96"
       inkscape:export-filename="C:\Users\Eggstream\Google Drive\Misc_\Doodles\Clark\noText\clarkyTrouble.png" />
    <path
       style="fill:#000000;fill-opacity:1;stroke:none;stroke-width:1.4395;stroke-linecap:round;stroke-linejoin:round;stroke-miterlimit:4;stroke-dasharray:none;stroke-dashoffset:0;stroke-opacity:1;paint-order:stroke markers fill"
       inkscape:transform-center-x="-0.11169236"
       inkscape:transform-center-y="-0.5213277"
       d="m 119.87916,166.92117 c -0.40427,0.84899 -2.51486,-4.26174 -4.62081,-2.93923 -0.53311,-0.77462 -0.68003,-1.51825 0.25736,-1.59263 0.93738,-0.0743 4.76774,3.68287 4.36345,4.53186 z"
       id="path5146"
       inkscape:connector-curvature="0"
       sodipodi:nodetypes="cccc"
       inkscape:export-xdpi="96"
       inkscape:export-ydpi="96"
       inkscape:export-filename="C:\Users\Eggstream\Google Drive\Misc_\Doodles\Clark\noText\clarkyTrouble.png" />
    <path
       style="fill:#000000;fill-opacity:1;stroke:none;stroke-width:1.4395;stroke-linecap:round;stroke-linejoin:round;stroke-miterlimit:4;stroke-dasharray:none;stroke-dashoffset:0;stroke-opacity:1;paint-order:stroke markers fill"
       inkscape:transform-center-x="6.1554841"
       inkscape:transform-center-y="-4.8025743"
       d="m 118.06261,199.77063 c -1.75406,0.40941 0.92953,-3.1341 1.40286,-4.69859 0.61335,-2.02727 0.63054,-7.38938 1.86218,-6.07508 1.23164,1.31431 -1.51099,10.36418 -3.26504,10.77367 z"
       id="path5148"
       inkscape:connector-curvature="0"
       sodipodi:nodetypes="cacc"
       inkscape:export-xdpi="96"
       inkscape:export-ydpi="96"
       inkscape:export-filename="C:\Users\Eggstream\Google Drive\Misc_\Doodles\Clark\noText\clarkyTrouble.png" />
    <path
       sodipodi:nodetypes="cacc"
       inkscape:connector-curvature="0"
       id="path5151"
       d="m 120.15064,200.40137 c -1.43343,0.28854 0.90285,-2.7618 1.36105,-4.14003 0.59376,-1.78593 0.87093,-6.58067 1.79876,-5.35077 0.92785,1.22993 -1.72642,9.2022 -3.15981,9.4908 z"
       inkscape:transform-center-y="-4.5743099"
       inkscape:transform-center-x="4.7489007"
       style="fill:#000000;fill-opacity:1;stroke:none;stroke-width:1.4395;stroke-linecap:round;stroke-linejoin:round;stroke-miterlimit:4;stroke-dasharray:none;stroke-dashoffset:0;stroke-opacity:1;paint-order:stroke markers fill"
       inkscape:export-xdpi="96"
       inkscape:export-ydpi="96"
       inkscape:export-filename="C:\Users\Eggstream\Google Drive\Misc_\Doodles\Clark\noText\clarkyTrouble.png" />
    <path
       style="fill:#000000;fill-opacity:1;stroke:none;stroke-width:1.4395;stroke-linecap:round;stroke-linejoin:round;stroke-miterlimit:4;stroke-dasharray:none;stroke-dashoffset:0;stroke-opacity:1;paint-order:stroke markers fill"
       inkscape:transform-center-x="3.9141413"
       inkscape:transform-center-y="-3.9849056"
       d="m 122.58862,201.24908 c -1.18524,0.25624 0.75283,-2.41672 1.13483,-3.62276 0.49501,-1.56278 0.73577,-5.75478 1.4995,-4.68229 0.7637,1.07249 -1.44911,8.04873 -2.63433,8.30505 z"
       id="path5153"
       inkscape:connector-curvature="0"
       sodipodi:nodetypes="cacc"
       inkscape:export-xdpi="96"
       inkscape:export-ydpi="96"
       inkscape:export-filename="C:\Users\Eggstream\Google Drive\Misc_\Doodles\Clark\noText\clarkyTrouble.png" />
    <path
       sodipodi:nodetypes="scccs"
       inkscape:connector-curvature="0"
       id="path5155"
       d="m 87.92477,173.3793 c -5.26558,-0.0522 -8.53343,5.43754 -4.74383,18.32463 -2.1912,-22.96953 13.06383,-13.1751 20.83236,0.88985 0.75251,0.96123 2.28712,0.0334 1.99005,-0.85418 -3.81214,-11.3181 -12.19288,-18.3019 -18.07858,-18.3603 z"
       style="fill:#000000;fill-opacity:1;stroke:none;stroke-width:6.73277;stroke-linecap:round;stroke-linejoin:round;stroke-miterlimit:4;stroke-dasharray:none;stroke-dashoffset:0;stroke-opacity:1;paint-order:stroke markers fill"
       inkscape:export-xdpi="96"
       inkscape:export-ydpi="96"
       inkscape:export-filename="C:\Users\Eggstream\Google Drive\Misc_\Doodles\Clark\noText\clarkyTrouble.png" />
    <path
       style="fill:#ffffff;fill-opacity:1;stroke:none;stroke-width:3.9259;stroke-linecap:round;stroke-linejoin:round;stroke-miterlimit:4;stroke-dasharray:none;stroke-dashoffset:0;stroke-opacity:1;paint-order:stroke markers fill"
       d="m 82.89273,177.66327 c 0.46028,0.51258 0.512,0.5721 0.81911,0.5721 0.51488,0 1.3549,-0.91583 2.15049,-2.09708 0.48155,0.54832 0.92701,0.90348 1.24635,0.90348 0.46209,0 1.18749,-0.74085 1.90636,-1.74541 0.73328,1.03632 1.47872,1.80695 1.95032,1.80695 0.31692,0 0.75815,-0.35144 1.23552,-0.89266 0.84999,1.32091 1.78753,2.39192 2.34458,2.39192 0.2065,0 0.46929,-0.1592 0.75673,-0.41116 0.90686,1.48845 1.9701,2.7679 2.57924,2.7679 0.20127,0 0.38331,-0.33546 0.66205,-0.57585 -3.90061,-4.54333 -12.10553,-9.75607 -15.65075,-2.72019 z"
       id="path5157"
       inkscape:connector-curvature="0"
       sodipodi:nodetypes="cscscscscscc"
       inkscape:export-xdpi="96"
       inkscape:export-ydpi="96"
       inkscape:export-filename="C:\Users\Eggstream\Google Drive\Misc_\Doodles\Clark\noText\clarkyTrouble.png" />
    <circle
       r="4.1621194"
       style="fill:none;fill-opacity:1;stroke:#000000;stroke-width:0.78518;stroke-linecap:round;stroke-linejoin:round;stroke-miterlimit:4;stroke-dasharray:6.28144, 6.28144;stroke-dashoffset:3.96;stroke-opacity:1;paint-order:stroke markers fill"
       id="circle5170"
       cx="110.74953"
       cy="171.72137"
       inkscape:export-filename="C:\Users\Eggstream\Google Drive\Misc_\Doodles\Clark\noText\clarkyTrouble.png"
       inkscape:export-xdpi="96"
       inkscape:export-ydpi="96" />
    <rect
       transform="matrix(0.55049388,-0.8348392,0.83453806,0.5509503,0,0)"
       ry="0.7421838"
       y="150.27066"
       x="-108.47266"
       height="6.1718435"
       width="1.6137944"
       id="rect5233"
       style="fill:#ffffff;fill-opacity:1;stroke:#000000;stroke-width:0.778;stroke-linecap:round;stroke-linejoin:round;stroke-miterlimit:4;stroke-dasharray:none;stroke-dashoffset:18.7602;stroke-opacity:1;paint-order:stroke markers fill"
       inkscape:export-filename="C:\Users\Eggstream\Google Drive\Misc_\Doodles\Clark\noText\clarkyTrouble.png"
       inkscape:export-xdpi="96"
       inkscape:export-ydpi="96" />
    <path
       style="fill:#000000;fill-opacity:1;stroke:#000000;stroke-width:1.071;stroke-linecap:round;stroke-linejoin:round;stroke-miterlimit:4;stroke-dasharray:none;stroke-dashoffset:18.7602;stroke-opacity:1;paint-order:stroke markers fill"
       d="m 66.10763,177.86472 c 0.74368,-2.54614 1.30968,-3.25645 3.34986,-4.80318 6.75018,2.21636 0.0891,10.15499 -3.34986,4.80318 z"
       id="path5226"
       inkscape:connector-curvature="0"
       sodipodi:nodetypes="ccc"
       inkscape:export-filename="C:\Users\Eggstream\Google Drive\Misc_\Doodles\Clark\noText\clarkyTrouble.png"
       inkscape:export-xdpi="96"
       inkscape:export-ydpi="96" />
  </g>
</svg>
